<svg width="48" height="49" viewBox="0 0 48 49" fill="none" xmlns="http://www.w3.org/2000/svg">
<path fill-rule="evenodd" clip-rule="evenodd" d="M48.0001 1.7981H40.5841C37.1622 1.7981 34.384 4.63362 34.384 8.12625V14.4321H41.8584C45.2481 14.4321 48.0001 11.6232 48.0001 8.16348V1.7981Z" fill="#000091"/>
<path fill-rule="evenodd" clip-rule="evenodd" d="M17.1921 1.7981H24.608C28.03 1.7981 30.8081 4.63362 30.8081 8.12625V14.4321H23.3337C19.944 14.4321 17.1921 11.6232 17.1921 8.16348V1.7981Z" fill="#000091"/>
<path fill-rule="evenodd" clip-rule="evenodd" d="M-8.4794e-05 18.082H7.41587C10.8378 18.082 13.616 20.9175 13.616 24.4101V30.716H6.14161C2.75186 30.716 -8.4794e-05 27.9071 -8.4794e-05 24.4474V18.082Z" fill="#E1000F"/>
<path fill-rule="evenodd" clip-rule="evenodd" d="M-8.4794e-05 34.3659H7.41587C10.8378 34.3659 13.616 37.2014 13.616 40.6941V47H6.14161C2.75186 47 -8.4794e-05 44.191 -8.4794e-05 40.7313V34.3659Z" fill="#E1000F"/>
<path fill-rule="evenodd" clip-rule="evenodd" d="M17.1921 18.082H24.608C28.03 18.082 30.8081 20.9175 30.8081 24.4101V30.716H23.3337C19.944 30.716 17.1921 27.9071 17.1921 24.4474V18.082Z" fill="#D9D9D9"/>
<path fill-rule="evenodd" clip-rule="evenodd" d="M48.0001 18.082H40.5841C37.1622 18.082 34.384 20.9175 34.384 24.4101V30.716H41.8584C45.2481 30.716 48.0001 27.9071 48.0001 24.4474V18.082Z" fill="#D9D9D9"/>
<path fill-rule="evenodd" clip-rule="evenodd" d="M17.1921 34.3659H24.608C28.03 34.3659 30.8081 37.2014 30.8081 40.6941V47H23.3337C19.944 47 17.1921 44.191 17.1921 40.7313V34.3659Z" fill="#D9D9D9"/>
<path fill-rule="evenodd" clip-rule="evenodd" d="M48.0001 34.3659H40.5841C37.1622 34.3659 34.384 37.2014 34.384 40.6941V47H41.8584C45.2481 47 48.0001 44.191 48.0001 40.7313V34.3659Z" fill="#D9D9D9"/>
</svg>
