<?xml version="1.0" encoding="UTF-8" standalone="no"?>
<svg
   width="41px"
   height="38px"
   viewBox="0 0 41 38"
   version="1.1"
   id="svg1"
   sodipodi:docname="GristGouvLogo.svg"
   inkscape:version="1.3.2 (091e20ef0f, 2023-11-25, custom)"
   xmlns:inkscape="http://www.inkscape.org/namespaces/inkscape"
   xmlns:sodipodi="http://sodipodi.sourceforge.net/DTD/sodipodi-0.dtd"
   xmlns="http://www.w3.org/2000/svg"
   xmlns:svg="http://www.w3.org/2000/svg"
   xmlns:rdf="http://www.w3.org/1999/02/22-rdf-syntax-ns#"
   xmlns:cc="http://creativecommons.org/ns#"
   xmlns:dc="http://purl.org/dc/elements/1.1/">
  <defs
     id="defs1" />
  <sodipodi:namedview
     id="namedview1"
     pagecolor="#ffffff"
     bordercolor="#666666"
     borderopacity="1.0"
     inkscape:showpageshadow="2"
     inkscape:pageopacity="0.0"
     inkscape:pagecheckerboard="0"
     inkscape:deskcolor="#d1d1d1"
     inkscape:zoom="5.7560976"
     inkscape:cx="20.5"
     inkscape:cy="18.936441"
     inkscape:window-width="1890"
     inkscape:window-height="1108"
     inkscape:window-x="15"
     inkscape:window-y="15"
     inkscape:window-maximized="1"
     inkscape:current-layer="svg1" />
  <!-- Generator: Sketch 52.5 (67469) - http://www.bohemiancoding.com/sketch -->
  <title
     id="title1">Slice 1</title>
  <desc
     id="desc1">Created with Sketch.</desc>
  <g
     id="Page-1"
     stroke="none"
     stroke-width="1"
     fill="none"
     fill-rule="evenodd">
    <g
       id="grist"
       transform="translate(0.664062, 0.917969)">
      <g
         id="g10"
         transform="translate(0.022193, 0.074918)">
        <g
           id="g4348">
          <g
             id="g12"
             transform="translate(27.448160, 0.168619)"
             fill="#000091">
            <path
               d="M10.8624745,0.0985917347 L5.01558743,0.0985917347 C2.31763491,0.0985917347 0.12730186,2.28892009 0.12730186,4.98684183 L0.12730186,9.85788972 L6.02023995,9.85788972 C8.69278503,9.85788972 10.8624745,7.68810131 10.8624745,5.01559775 L10.8624745,0.0985917347 Z"
               id="path14" />
          </g>
          <g
             id="g16"
             transform="translate(19.325608, 5.175230) scale(-1, 1) translate(-19.325608, -5.175230) translate(13.767731, 0.168619)"
             fill="#000091">
            <path
               d="M10.8624745,0.0985917347 L5.01558743,0.0985917347 C2.31763491,0.0985917347 0.12730186,2.28892009 0.12730186,4.98684183 L0.12730186,9.85788972 L6.02023995,9.85788972 C8.69278503,9.85788972 10.8624745,7.68810131 10.8624745,5.01559775 L10.8624745,0.0985917347 Z"
               id="path18" />
          </g>
          <g
             id="g20"
             transform="translate(5.771053, 17.753945) scale(-1, 1) translate(-5.771053, -17.753945) translate(0.213175, 12.747333)"
             fill="#e1000f">
            <path
               d="M10.8624745,0.0985917347 L5.01558743,0.0985917347 C2.31763491,0.0985917347 0.12730186,2.28892009 0.12730186,4.98684183 L0.12730186,9.85788972 L6.02023995,9.85788972 C8.69278503,9.85788972 10.8624745,7.68810131 10.8624745,5.01559775 L10.8624745,0.0985917347 Z"
               id="path22" />
          </g>
          <g
             id="g24"
             transform="translate(5.771053, 30.332572) scale(-1, 1) translate(-5.771053, -30.332572) translate(0.213175, 25.325961)"
             fill="#e1000f">
            <path
               d="M10.8624745,0.0985917347 L5.01558743,0.0985917347 C2.31763491,0.0985917347 0.12730186,2.28892009 0.12730186,4.98684183 L0.12730186,9.85788972 L6.02023995,9.85788972 C8.69278503,9.85788972 10.8624745,7.68810131 10.8624745,5.01559775 L10.8624745,0.0985917347 Z"
               id="path26" />
          </g>
          <g
             id="g28"
             transform="translate(19.325608, 17.753945) scale(-1, 1) translate(-19.325608, -17.753945) translate(13.767731, 12.747333)"
             fill="#cecece">
            <path
               d="M10.8624745,0.0985917347 L5.01558743,0.0985917347 C2.31763491,0.0985917347 0.12730186,2.28892009 0.12730186,4.98684183 L0.12730186,9.85788972 L6.02023995,9.85788972 C8.69278503,9.85788972 10.8624745,7.68810131 10.8624745,5.01559775 L10.8624745,0.0985917347 Z"
               id="path30" />
          </g>
          <g
             id="g32"
             transform="translate(27.448160, 12.747333)"
             fill="#cecece">
            <path
               d="M10.8624745,0.0985917347 L5.01558743,0.0985917347 C2.31763491,0.0985917347 0.12730186,2.28892009 0.12730186,4.98684183 L0.12730186,9.85788972 L6.02023995,9.85788972 C8.69278503,9.85788972 10.8624745,7.68810131 10.8624745,5.01559775 L10.8624745,0.0985917347 Z"
               id="path34" />
          </g>
          <g
             id="g36"
             transform="translate(19.325608, 30.332572) scale(-1, 1) translate(-19.325608, -30.332572) translate(13.767731, 25.325961)"
             fill="#cecece">
            <path
               d="M10.8624745,0.0985917347 L5.01558743,0.0985917347 C2.31763491,0.0985917347 0.12730186,2.28892009 0.12730186,4.98684183 L0.12730186,9.85788972 L6.02023995,9.85788972 C8.69278503,9.85788972 10.8624745,7.68810131 10.8624745,5.01559775 L10.8624745,0.0985917347 Z"
               id="path38" />
          </g>
          <g
             id="g40"
             transform="translate(27.448160, 25.325961)"
             fill="#cecece">
            <path
               d="M10.8624745,0.0985917347 L5.01558743,0.0985917347 C2.31763491,0.0985917347 0.12730186,2.28892009 0.12730186,4.98684183 L0.12730186,9.85788972 L6.02023995,9.85788972 C8.69278503,9.85788972 10.8624745,7.68810131 10.8624745,5.01559775 L10.8624745,0.0985917347 Z"
               id="path42" />
          </g>
        </g>
      </g>
    </g>
  </g>
  <metadata
     id="metadata1">
    <rdf:RDF>
      <cc:Work
         rdf:about="">
        <dc:title>Slice 1</dc:title>
      </cc:Work>
    </rdf:RDF>
  </metadata>
</svg>
