<svg width="48" height="48" viewBox="0 0 48 48" fill="none" xmlns="http://www.w3.org/2000/svg">
<path fill-rule="evenodd" clip-rule="evenodd" d="M29 9.19952H25.2921C23.5811 9.19952 22.192 10.6173 22.192 12.3636V15.5165H25.9292C27.6241 15.5165 29 14.1121 29 12.3822V9.19952Z" fill="#000091"/>
<path fill-rule="evenodd" clip-rule="evenodd" d="M13.596 9.19952H17.304C19.015 9.19952 20.4041 10.6173 20.4041 12.3636V15.5165H16.6669C14.972 15.5165 13.596 14.1121 13.596 12.3822V9.19952Z" fill="#000091"/>
<path fill-rule="evenodd" clip-rule="evenodd" d="M4.99996 17.3414H8.70793C10.4189 17.3414 11.808 18.7592 11.808 20.5055V23.6585H8.0708C6.37593 23.6585 4.99996 22.254 4.99996 20.5241V17.3414Z" fill="#E1000F"/>
<path fill-rule="evenodd" clip-rule="evenodd" d="M4.99996 25.4835H8.70793C10.4189 25.4835 11.808 26.9012 11.808 28.6475V31.8005H8.0708C6.37593 31.8005 4.99996 30.396 4.99996 28.6662V25.4835Z" fill="#E1000F"/>
<path fill-rule="evenodd" clip-rule="evenodd" d="M13.596 17.3414H17.304C19.015 17.3414 20.4041 18.7592 20.4041 20.5055V23.6585H16.6669C14.972 23.6585 13.596 22.254 13.596 20.5241V17.3414Z" fill="#D9D9D9"/>
<path fill-rule="evenodd" clip-rule="evenodd" d="M29 17.3414H25.2921C23.5811 17.3414 22.192 18.7592 22.192 20.5055V23.6585H25.9292C27.6241 23.6585 29 22.254 29 20.5241V17.3414Z" fill="#D9D9D9"/>
<path fill-rule="evenodd" clip-rule="evenodd" d="M13.596 25.4835H17.304C19.015 25.4835 20.4041 26.9012 20.4041 28.6475V31.8005H16.6669C14.972 31.8005 13.596 30.396 13.596 28.6662V25.4835Z" fill="#D9D9D9"/>
<path fill-rule="evenodd" clip-rule="evenodd" d="M29 25.4835H25.2921C23.5811 25.4835 22.192 26.9012 22.192 28.6475V31.8005H25.9292C27.6241 31.8005 29 30.396 29 28.6662V25.4835Z" fill="#D9D9D9"/>
<rect x="16.5" y="29.5" width="27" height="12" rx="2.5" fill="#000091"/>
<rect x="16.5" y="29.5" width="27" height="12" rx="2.5" stroke="white"/>
<path d="M35.6633 38.4507H34.5222L36.5998 32.5493H37.9196L40 38.4507H38.859L37.2827 33.7596H37.2366L35.6633 38.4507ZM35.7008 36.1368H38.8128V36.9956H35.7008V36.1368Z" fill="white"/>
<path d="M30.0026 33.4455V32.5493H34.711V33.4455H32.887V38.4507H31.8266V33.4455H30.0026Z" fill="white"/>
<path d="M25.3329 38.4507V32.5493H29.1711V33.4455H26.4019V35.0476H28.9723V35.9438H26.4019V37.5546H29.1942V38.4507H25.3329Z" fill="white"/>
<path d="M19.9999 38.4507V32.5493H22.259C22.6855 32.5493 23.0399 32.6166 23.3223 32.751C23.6066 32.8836 23.8189 33.0651 23.9591 33.2956C24.1013 33.5262 24.1724 33.7874 24.1724 34.0794C24.1724 34.3196 24.1263 34.5251 24.0341 34.6961C23.9418 34.8651 23.8179 35.0025 23.6623 35.1081C23.5067 35.2138 23.3329 35.2897 23.1408 35.3358V35.3934C23.3502 35.4049 23.5509 35.4693 23.743 35.5865C23.937 35.7017 24.0955 35.865 24.2185 36.0763C24.3414 36.2877 24.4029 36.5431 24.4029 36.8428C24.4029 37.1483 24.3289 37.423 24.181 37.667C24.0331 37.909 23.8103 38.1001 23.5125 38.2404C23.2147 38.3806 22.8401 38.4507 22.3887 38.4507H19.9999ZM21.0689 37.5575H22.2187C22.6067 37.5575 22.8862 37.4835 23.0572 37.3356C23.2301 37.1857 23.3165 36.9936 23.3165 36.7593C23.3165 36.5845 23.2733 36.4269 23.1869 36.2867C23.1004 36.1445 22.9775 36.0331 22.818 35.9524C22.6586 35.8698 22.4684 35.8285 22.2475 35.8285H21.0689V37.5575ZM21.0689 35.0591H22.1265C22.3109 35.0591 22.4771 35.0255 22.625 34.9583C22.7729 34.8891 22.8891 34.7921 22.9736 34.6673C23.0601 34.5405 23.1033 34.3906 23.1033 34.2177C23.1033 33.9891 23.0226 33.8009 22.8613 33.653C22.7018 33.505 22.4646 33.4311 22.1495 33.4311H21.0689V35.0591Z" fill="white"/>
</svg>
