<svg xmlns="http://www.w3.org/2000/svg" viewBox="0 0 184.43 219.43"><defs><style>.cls-1{fill:#274185;}.cls-2{fill:#ffcb05;}.cls-3{fill:#5c72b7;}.cls-4{fill:#008473;}</style></defs><g id="Calque_2" data-name="Calque 2"><g id="logo"><path class="cls-1" d="M24.38,80.68c0-10.89,8.45-18.76,23.78-21.34l23.35-3.87V51.74c0-8.88-6.59-14.32-15.9-14.32a21.51,21.51,0,0,0-18.19,9.45l-11-8.45c6.45-8.6,16.77-14,29.66-14,19.49,0,30.23,11.46,30.23,27.36V99.45H71.51V91.29c-5.15,6.3-14.18,10.31-23.06,10.31C34.12,101.6,24.38,93.43,24.38,80.68Zm26.79,8.89A23.15,23.15,0,0,0,71.51,78.39V65.93L52,69.22c-9,1.58-12.75,5.45-12.75,10.89C39.28,85.7,43.72,89.57,51.17,89.57Z"/><path class="cls-1" d="M94.29,27.24h14.76v7A30.11,30.11,0,0,1,132,24.38c15.91,0,28.09,10.74,28.09,31.66V99.45H145.15V56.61c0-11.46-6.3-18.33-16.61-18.33-9.89,0-15.76,6.16-19.49,12.46V99.45H94.29Z"/><path class="cls-1" d="M84.11,170.62,96,179.72c-6.75,9.1-17.61,15-31.25,15-24.81,0-40.36-18.35-40.36-39.92s15.55-39.92,40.36-39.92c13.5,0,24.5,5.87,31.25,15l-11.88,9.1a23.46,23.46,0,0,0-19.37-9.83c-14.24,0-24.51,11.15-24.51,25.68s10.27,25.68,24.65,25.68A23.39,23.39,0,0,0,84.11,170.62Z"/><path class="cls-1" d="M119.32,132.94h-16V119.61h16v-18h14.9v18h25.84v13.33H134.22v33.81c0,9.74,5.15,12.89,13.18,12.89,4.87,0,10.08-.57,12.66-1.57v13c-3.44,1.44-9.37,2.15-14.95,2.15-16.91,0-25.79-8.88-25.79-26.5Z"/><path class="cls-1" d="M170.08,14.46v9.92h14.35V10.47C184.43,5.44,180,.32,175,0h-14.9V13.85Z"/><path class="cls-2" d="M170.08,205v-9.92h14.35V209c0,5-4.46,10.14-9.47,10.47h-14.9V205.58Z"/><path class="cls-3" d="M14.36,205v-9.92H0V209c0,5,4.46,10.14,9.47,10.47H24.38V205.58Z"/><path class="cls-4" d="M14.36,14.46v9.92H0V10.47C0,5.44,4.46.32,9.47,0H24.38V13.85Z"/></g></g></svg>